<svg xmlns="http://www.w3.org/2000/svg" xmlns:xlink="http://www.w3.org/1999/xlink" version="1.1" x="0px" y="0px" viewBox="0 0 335.1 240.5" style="enable-background:new 0 0 335.1 192.4;" xml:space="preserve"><path d="M23.4,119.6h181.9c7.2,0,13,5.8,13,13v0c0,7.2-5.8,13-13,13h-3.9c-12.9,0-23.4,10.5-23.4,23.4s10.5,23.4,23.4,23.4h110.2  c12.9,0,23.4-10.5,23.4-23.4s-10.5-23.4-23.4-23.4h-54.4c-7.2,0-13-5.8-13-13v0c0-7.2,5.8-13,13-13h2.7c12.9,0,23.4-10.5,23.4-23.4  s-10.5-23.4-23.4-23.4H140c-7.2,0-13-5.8-13-13s5.8-13,13-13h163.6c12.9,0,23.4-10.5,23.4-23.4v0C327,10.5,316.6,0,303.6,0H67.1  C54.2,0,43.7,10.5,43.7,23.4v0c0,12.9,10.5,23.4,23.4,23.4h21c7.2,0,13,5.8,13,13s-5.8,13-13,13H23.4C10.5,72.8,0,83.3,0,96.2  S10.5,119.6,23.4,119.6z"/><text x="0" y="207.4" fill="#000000" font-size="5px" font-weight="bold" font-family="'Helvetica Neue', Helvetica, Arial-Unicode, Arial, Sans-serif">Created by WiStudio</text><text x="0" y="212.4" fill="#000000" font-size="5px" font-weight="bold" font-family="'Helvetica Neue', Helvetica, Arial-Unicode, Arial, Sans-serif">from the Noun Project</text></svg>