
<svg width="480px" height="480px" viewBox="0 0 480 480" version="1.1" xmlns="http://www.w3.org/2000/svg" xmlns:xlink="http://www.w3.org/1999/xlink">
    <!-- Generator: Sketch 44.1 (41455) - http://www.bohemiancoding.com/sketch -->
    <desc>Created with Sketch.</desc>
    <defs>
        <linearGradient x1="0%" y1="0%" x2="100%" y2="100%" id="linearGradient-1">
            <stop stop-color="#8600C6" offset="0%"></stop>
            <stop stop-color="#6B00FF" offset="100%"></stop>
        </linearGradient>
    </defs>
    <g id="Page-1" stroke="none" stroke-width="1" fill="none" fill-rule="evenodd">
        <g id="Group-5" fill-rule="nonzero" fill="url(#linearGradient-1)">
            <path d="M56,416 C25.128,416 0,441.128 0,472 C0,476.424 3.576,480 8,480 L104,480 C108.424,480 112,476.424 112,472 C112,441.128 86.872,416 56,416 Z M16.808,464 C19.992,448.36 32.36,436.072 48,432.88 L48,448 L64,448 L64,432.88 C79.64,436.08 92.008,448.36 95.192,464 L16.808,464 Z" id="Shape"></path>
            <path d="M472,344 L457.968,344 C457.528,342.888 457.072,341.784 456.576,340.672 L466.504,330.744 C469.632,327.616 469.632,322.56 466.504,319.432 L432.568,285.496 C430.912,283.84 428.728,283.12 426.56,283.224 C439.24,276.496 448,263.32 448,248 L448,40 C448,17.944 430.056,0 408,0 L40,0 C17.944,0 0,17.944 0,40 L0,248 C0,270.056 17.944,288 40,288 L144.4,288 L114.176,344 L112,344 L100,344 C84.56,344 72,356.56 72,372 C72,387.44 84.56,400 100,400 L272,400 C272,404.424 275.576,408 280,408 L294.032,408 C294.472,409.112 294.928,410.216 295.424,411.328 L285.496,421.256 C282.368,424.384 282.368,429.44 285.496,432.568 L319.432,466.504 C322.56,469.632 327.616,469.632 330.744,466.504 L340.672,456.576 C341.784,457.072 342.888,457.528 344,457.968 L344,472 C344,476.424 347.576,480 352,480 L400,480 C404.424,480 408,476.424 408,472 L408,457.968 C409.112,457.528 410.216,457.072 411.328,456.576 L421.256,466.504 C424.384,469.632 429.44,469.632 432.568,466.504 L466.504,432.568 C469.632,429.44 469.632,424.384 466.504,421.256 L456.576,411.328 C457.072,410.216 457.528,409.112 457.968,408 L472,408 C476.424,408 480,404.424 480,400 L480,352 C480,347.576 476.424,344 472,344 Z M16,40 C16,26.768 26.768,16 40,16 L408,16 C421.232,16 432,26.768 432,40 L432,208 L16,208 L16,40 Z M40,272 C26.768,272 16,261.232 16,248 L16,224 L432,224 L432,248 C432,261.232 421.232,272 408,272 L400,272 L352,272 L290.192,272 L157.808,272 L40,272 Z M421.152,285.6 L411.328,295.424 C410.216,294.928 409.112,294.472 408,294.032 L408,288 C412.632,288 417.008,287.056 421.152,285.6 Z M344,288 L344,294.032 C342.888,294.472 341.784,294.928 340.672,295.424 L333.248,288 L344,288 Z M316.92,288 L310.024,294.896 L305.328,288 L316.92,288 Z M272,384 L100,384 C93.384,384 88,378.616 88,372 C88,365.384 93.384,360 100,360 L112,360 L118.944,360 L272,360 L272,384 Z M132.356,343.992 L162.576,288 L285.968,288 L298.512,306.408 L285.496,319.424 C282.368,322.552 282.368,327.608 285.496,330.736 L295.424,340.664 C294.928,341.776 294.472,342.88 294.032,343.992 L280,343.992 L132.356,343.992 Z M464,392 L452.328,392 C448.832,392 445.752,394.264 444.696,397.592 C443.48,401.456 441.84,405.392 439.816,409.264 C438.2,412.368 438.784,416.152 441.256,418.624 L449.544,426.912 L426.92,449.536 L418.632,441.248 C416.152,438.776 412.376,438.2 409.272,439.808 C405.4,441.832 401.464,443.472 397.6,444.688 C394.264,445.752 392,448.832 392,452.328 L392,464 L360,464 L360,452.328 C360,448.832 357.736,445.752 354.408,444.696 C350.544,443.48 346.608,441.84 342.736,439.816 C339.632,438.208 335.848,438.784 333.376,441.256 L325.088,449.544 L302.464,426.92 L310.752,418.632 C313.224,416.16 313.808,412.376 312.192,409.272 C310.168,405.4 308.528,401.464 307.312,397.6 C306.248,394.264 303.168,392 299.672,392 L288,392 L288,360 L299.672,360 C303.168,360 306.248,357.736 307.304,354.408 C308.52,350.544 310.16,346.608 312.184,342.736 C313.8,339.632 313.216,335.848 310.744,333.376 L302.456,325.088 L325.08,302.464 L333.368,310.752 C335.84,313.232 339.624,313.808 342.728,312.192 C346.6,310.168 350.536,308.528 354.4,307.312 C357.736,306.248 360,303.168 360,299.672 L360,288 L392,288 L392,299.672 C392,303.168 394.264,306.248 397.592,307.304 C401.456,308.52 405.392,310.16 409.264,312.184 C412.368,313.8 416.144,313.224 418.624,310.744 L426.912,302.456 L449.536,325.08 L441.248,333.368 C438.776,335.84 438.192,339.624 439.808,342.728 C441.832,346.6 443.472,350.536 444.688,354.4 C445.752,357.736 448.832,360 452.328,360 L464,360 L464,392 Z" id="Shape"></path>
            <path d="M376,328 C349.528,328 328,349.528 328,376 C328,402.472 349.528,424 376,424 C402.472,424 424,402.472 424,376 C424,349.528 402.472,328 376,328 Z M376,408 C358.352,408 344,393.648 344,376 C344,358.352 358.352,344 376,344 C393.648,344 408,358.352 408,376 C408,393.648 393.648,408 376,408 Z" id="Shape"></path>
            <path d="M157.656,61.656 L146.344,50.344 L90.344,106.344 C87.216,109.472 87.216,114.528 90.344,117.656 L146.344,173.656 L157.656,162.344 L107.312,112 L157.656,61.656 Z" id="Shape"></path>
            <path d="M333.656,106.344 L277.656,50.344 L266.344,61.656 L316.688,112 L266.344,162.344 L277.656,173.656 L333.656,117.656 C336.784,114.528 336.784,109.472 333.656,106.344 Z" id="Shape"></path>
            <rect id="Rectangle-path" transform="translate(211.980656, 104.023371) rotate(-63.434949) translate(-211.980656, -104.023371) " x="131.505603" y="96.0236144" width="160.950107" height="15.9995136"></rect>
            <rect id="Rectangle-path" x="312" y="160" width="16" height="16"></rect>
            <rect id="Rectangle-path" x="344" y="160" width="16" height="16"></rect>
            <rect id="Rectangle-path" x="376" y="160" width="16" height="16"></rect>
        </g>
    </g>
</svg>