
<svg width="512px" height="456px" viewBox="0 0 512 456" version="1.1" xmlns="http://www.w3.org/2000/svg" xmlns:xlink="http://www.w3.org/1999/xlink">
    <!-- Generator: Sketch 44.1 (41455) - http://www.bohemiancoding.com/sketch -->
    <desc>Created with Sketch.</desc>
    <defs>
        <linearGradient x1="0%" y1="0%" x2="100%" y2="100%" id="linearGradient-1">
            <stop stop-color="#8600C6" offset="0%"></stop>
            <stop stop-color="#6B00FF" offset="100%"></stop>
        </linearGradient>
    </defs>
    <g id="Page-1" stroke="none" stroke-width="1" fill="none" fill-rule="evenodd">
        <g id="003-layers" fill-rule="nonzero" fill="url(#linearGradient-1)">
            <path d="M512,228.001 C512,217.18 505.988,207.45 496.306,202.603 L458.184,183.542 L496.306,164.482 C496.307,164.481 496.31,164.48 496.31,164.48 C505.99,159.635 512.002,149.904 512.002,139.083 C512.002,128.264 505.989,118.533 496.308,113.686 L281.09,6.08 C265.378,-1.769 246.62,-1.769 230.905,6.081 L15.691,113.691 C6.013,118.534 -2.30499709e-14,128.264 -2.30499709e-14,139.084 C-2.30499709e-14,149.905 6.012,159.635 15.694,164.482 L53.815,183.542 L15.689,202.605 C6.012,207.45 -2.30499709e-14,217.18 -2.30499709e-14,228.001 C-2.30499709e-14,238.822 6.012,248.552 15.694,253.398 L53.815,272.459 L15.697,291.518 C6.02,296.353 0.004,306.08 -2.30499709e-14,316.902 C-0.004,327.73 6.008,337.466 15.694,342.314 L230.909,449.922 C238.765,453.847 247.38,455.808 255.999,455.808 C264.618,455.808 273.237,453.845 281.094,449.921 L496.309,342.313 C505.991,337.468 512.004,327.731 512,316.903 C511.996,306.081 505.98,296.354 496.306,291.522 L458.184,272.461 L496.31,253.398 C505.988,248.552 512,238.822 512,228.001 Z M26.225,143.431 C23.886,142.26 23.538,140.205 23.538,139.085 C23.538,137.965 23.888,135.91 26.221,134.742 L241.429,27.138 C245.992,24.858 250.997,23.72 256.002,23.72 C261.005,23.72 266.009,24.859 270.569,27.137 L485.776,134.74 C488.113,135.91 488.463,137.965 488.463,139.085 C488.463,140.205 488.115,142.26 485.776,143.431 L270.572,251.032 C261.447,255.59 250.553,255.59 241.433,251.033 L26.225,143.431 Z M485.783,312.575 C488.113,313.739 488.462,315.79 488.462,316.911 C488.463,318.034 488.114,320.093 485.779,321.261 L270.571,428.865 C261.446,433.423 250.552,433.424 241.432,428.866 L26.225,321.262 C23.886,320.091 23.537,318.033 23.538,316.91 C23.538,315.791 23.886,313.739 26.221,312.573 L80.133,285.617 L230.909,361.004 C238.765,364.929 247.38,366.89 255.998,366.89 C264.617,366.89 273.236,364.927 281.093,361.003 L431.865,285.617 L485.783,312.575 Z M485.778,232.345 L270.571,339.949 C261.446,344.507 250.552,344.508 241.432,339.95 L26.225,232.347 C23.886,231.177 23.538,229.122 23.538,228.002 C23.538,226.88 23.886,224.827 26.221,223.658 L80.133,196.702 L230.909,272.089 C238.764,276.014 247.381,277.975 255.998,277.975 C264.615,277.975 273.235,276.013 281.092,272.087 L431.866,196.701 L485.774,223.655 C488.113,224.826 488.461,226.88 488.461,228.001 C488.462,229.121 488.113,231.176 485.778,232.345 Z" id="Shape"></path>
        </g>
    </g>
</svg>