
<svg width="333px" height="199px" viewBox="0 0 333 199" version="1.1" xmlns="http://www.w3.org/2000/svg" xmlns:xlink="http://www.w3.org/1999/xlink">
    <!-- Generator: Sketch 44.1 (41455) - http://www.bohemiancoding.com/sketch -->
    <desc>Created with Sketch.</desc>
    <defs></defs>
    <g id="Page-1" stroke="none" stroke-width="1" fill="none" fill-rule="evenodd">
        <path d="M193.175751,173.097045 C179.307119,184.072052 161.646904,190.645833 142.416667,190.645833 C118.645753,190.645833 97.2738268,180.601115 82.4969532,164.615182 C76.0490371,167.108902 69.0214826,168.479167 61.6666667,168.479167 C30.3705308,168.479167 5,143.66828 5,113.0625 C5,82.4567201 30.3705308,57.6458333 61.6666667,57.6458333 C68.3191292,57.6458333 74.7038499,58.7668852 80.6340699,60.8263498 C95.4466873,43.6323125 117.627185,32.7083333 142.416667,32.7083333 C152.30309,32.7083333 161.774546,34.4458317 170.529161,37.625616 C178.585287,18.4794412 197.849657,5 220.333333,5 C243.28944,5 262.889529,19.0518562 270.630417,38.8399542 C303.826925,48.6442541 328,78.7853945 328,114.447917 C328,158.061153 291.846994,193.416667 247.25,193.416667 C226.451995,193.416667 207.490442,185.727321 193.175751,173.097045 Z" id="Combined-Shape" stroke="#FFFBFE" stroke-width="10"></path>
    </g>
</svg>