
<svg width="325px" height="190px" viewBox="0 0 325 190" version="1.1" xmlns="http://www.w3.org/2000/svg" xmlns:xlink="http://www.w3.org/1999/xlink">
    <!-- Generator: Sketch 44.1 (41455) - http://www.bohemiancoding.com/sketch -->
    <desc>Created with Sketch.</desc>
    <defs>
        <linearGradient x1="0%" y1="0%" x2="100%" y2="100%" id="linearGradient-1">
            <stop stop-color="#8600C6" offset="0%"></stop>
            <stop stop-color="#6B00FF" offset="100%"></stop>
        </linearGradient>
    </defs>
    <g id="Page-1" stroke="none" stroke-width="1" fill="none" fill-rule="evenodd">
        <path d="M189.175751,169.097045 C175.307119,180.072052 157.646904,186.645833 138.416667,186.645833 C114.645753,186.645833 93.2738268,176.601115 78.4969532,160.615182 C72.0490371,163.108902 65.0214826,164.479167 57.6666667,164.479167 C26.3705308,164.479167 1,139.66828 1,109.0625 C1,78.4567201 26.3705308,53.6458333 57.6666667,53.6458333 C64.3191292,53.6458333 70.7038499,54.7668852 76.6340699,56.8263498 C91.4466873,39.6323125 113.627185,28.7083333 138.416667,28.7083333 C148.30309,28.7083333 157.774546,30.4458317 166.529161,33.625616 C174.585287,14.4794412 193.849657,1 216.333333,1 C239.28944,1 258.889529,15.0518562 266.630417,34.8399542 C299.826925,44.6442541 324,74.7853945 324,110.447917 C324,154.061153 287.846994,189.416667 243.25,189.416667 C222.451995,189.416667 203.490442,181.727321 189.175751,169.097045 Z" id="Combined-Shape" stroke="url(#linearGradient-1)"></path>
    </g>
</svg>