<?xml version="1.0" encoding="UTF-8"?>
<svg width="102px" height="60px" viewBox="0 0 102 60" version="1.1" xmlns="http://www.w3.org/2000/svg" xmlns:xlink="http://www.w3.org/1999/xlink">
    <!-- Generator: Sketch 44.1 (41455) - http://www.bohemiancoding.com/sketch -->
    <title>Combined Shape</title>
    <desc>Created with Sketch.</desc>
    <defs></defs>
    <g id="Page-1" stroke="none" stroke-width="1" fill="none" fill-rule="evenodd">
        <g id="Desktop-Ver-2" transform="translate(-41.000000, -21.000000)" stroke="#FFFBFE">
            <path d="M100.258746,74.0424289 C95.9650523,77.4402638 90.4974934,79.4754902 84.5438596,79.4754902 C77.1844435,79.4754902 70.5677482,76.3656703 65.9928648,71.4164651 C63.9966059,72.1885145 61.8208925,72.6127451 59.5438596,72.6127451 C49.8546535,72.6127451 42,64.931356 42,55.4558824 C42,45.9804087 49.8546535,38.2990196 59.5438596,38.2990196 C61.6034456,38.2990196 63.5801393,38.6460945 65.4161207,39.2836996 C70.0020691,33.9604689 76.869097,30.5784314 84.5438596,30.5784314 C87.6046716,30.5784314 90.5370105,31.1163565 93.2474176,32.1008096 C95.741575,26.1732016 101.705776,22 108.666667,22 C115.77382,22 121.841959,26.3504199 124.238519,32.476766 C134.516076,35.512153 142,44.8437754 142,55.8848039 C142,69.3873539 130.807119,80.3333333 117,80.3333333 C110.560989,80.3333333 104.690539,77.9527311 100.258746,74.0424289 Z" id="Combined-Shape"></path>
        </g>
    </g>
</svg>