
<svg width="480px" height="440px" viewBox="0 0 480 440" version="1.1" xmlns="http://www.w3.org/2000/svg" xmlns:xlink="http://www.w3.org/1999/xlink">
    <!-- Generator: Sketch 44.1 (41455) - http://www.bohemiancoding.com/sketch -->
    <desc>Created with Sketch.</desc>
    <defs>
        <linearGradient x1="0%" y1="0%" x2="100%" y2="100%" id="linearGradient-1">
            <stop stop-color="#8600C6" offset="0%"></stop>
            <stop stop-color="#6B00FF" offset="100%"></stop>
        </linearGradient>
    </defs>
    <g id="Page-1" stroke="none" stroke-width="1" fill="none" fill-rule="evenodd">
        <g id="005-sign" fill-rule="nonzero" fill="url(#linearGradient-1)">
            <path d="M411.312,168.015666 L279.624,36.4995822 C277.736,16.2220888 260.792,0.234986945 240,0.234986945 C219.208,0.234986945 202.264,16.2220888 200.376,36.4995822 L68.688,168.015666 L0,168.015666 L0,439.660574 L480,439.660574 L480,168.015666 L411.312,168.015666 Z M240,16.2140992 C253.232,16.2140992 264,26.9680418 264,40.1827676 C264,53.3974935 253.232,64.151436 240,64.151436 C226.768,64.151436 216,53.3974935 216,40.1827676 C216,26.9680418 226.768,16.2140992 240,16.2140992 Z M203.36,56.1139426 C209.544,70.2234987 223.616,80.1305483 240,80.1305483 C256.384,80.1305483 270.456,70.2234987 276.64,56.1139426 L388.688,168.015666 L91.312,168.015666 L203.36,56.1139426 Z M464,423.681462 L16,423.681462 L16,183.994778 L464,183.994778 L464,423.681462 Z" id="Shape"></path>
            <path d="M96,215.953003 C73.944,215.953003 56,233.873577 56,255.900783 L56,351.775457 C56,373.802663 73.944,391.723238 96,391.723238 C118.056,391.723238 136,373.802663 136,351.775457 L136,255.900783 C136,233.873577 118.056,215.953003 96,215.953003 Z M120,351.775457 C120,364.990183 109.232,375.744125 96,375.744125 C82.768,375.744125 72,364.990183 72,351.775457 L72,255.900783 C72,242.686057 82.768,231.932115 96,231.932115 C109.232,231.932115 120,242.686057 120,255.900783 L120,351.775457 Z" id="Shape"></path>
            <path d="M192,215.953003 C169.944,215.953003 152,233.873577 152,255.900783 L152,295.848564 L152,383.733681 C152,388.151906 155.584,391.723238 160,391.723238 C164.416,391.723238 168,388.151906 168,383.733681 L168,327.59906 C174.704,332.672428 182.96,335.796345 192,335.796345 C214.056,335.796345 232,317.87577 232,295.848564 L232,255.900783 C232,233.873577 214.056,215.953003 192,215.953003 Z M216,295.848564 C216,309.06329 205.232,319.817232 192,319.817232 C178.768,319.817232 168,309.06329 168,295.848564 L168,255.900783 C168,242.686057 178.768,231.932115 192,231.932115 C205.232,231.932115 216,242.686057 216,255.900783 L216,295.848564 Z" id="Shape"></path>
            <path d="M408,342.243916 L359.432,220.978433 C359.424,220.954465 359.4,220.938486 359.392,220.914517 C359.096,220.203446 358.624,219.612219 358.152,219.020992 C357.976,218.797285 357.872,218.509661 357.672,218.301932 C357.464,218.094204 357.168,217.990339 356.936,217.79859 C356.368,217.343185 355.808,216.871802 355.136,216.584178 C354.976,216.512272 354.784,216.528251 354.616,216.472324 C353.8,216.1847 352.952,215.968982 352.072,215.960992 C352.048,215.960992 352.032,215.945013 352,215.945013 C351.496,215.945013 351.064,216.144752 350.592,216.232637 C350.072,216.328512 349.544,216.312533 349.032,216.520261 C349.008,216.528251 348.992,216.552219 348.968,216.560209 C348.256,216.855822 347.656,217.327206 347.064,217.80658 C346.84,217.98235 346.552,218.086214 346.36,218.285953 C346.08,218.565587 345.928,218.949086 345.688,219.268668 C345.32,219.77201 344.888,220.243394 344.648,220.810653 C344.568,221.002402 344.584,221.22611 344.512,221.425849 C344.248,222.216815 344.024,223.02376 344.016,223.870653 C344.016,223.894621 344,223.910601 344,223.942559 L344,383.733681 C344,388.151906 347.584,391.723238 352,391.723238 C356.416,391.723238 360,388.151906 360,383.733681 L360,265.432324 L408.568,386.697807 C408.576,386.721775 408.6,386.745744 408.608,386.769713 C408.672,386.921514 408.776,387.033368 408.848,387.17718 C409.2,387.90423 409.632,388.551384 410.16,389.118642 C410.36,389.33436 410.576,389.502141 410.792,389.685901 C411.296,390.125326 411.84,390.492846 412.432,390.78846 C412.696,390.924282 412.936,391.052115 413.216,391.155979 C414.104,391.483551 415.024,391.715248 415.984,391.715248 L415.992,391.715248 L415.992,391.715248 L415.992,391.715248 C416.984,391.715248 417.984,391.539478 418.96,391.14799 C418.984,391.14 419,391.116031 419.024,391.108042 C419.728,390.820418 420.32,390.349034 420.904,389.87765 C421.128,389.69389 421.424,389.590026 421.632,389.390287 C421.896,389.134621 422.024,388.775091 422.248,388.479478 C422.64,387.960157 423.088,387.464804 423.344,386.857598 C423.424,386.673838 423.408,386.450131 423.472,386.258381 C423.744,385.467415 423.96,384.65248 423.968,383.797598 C423.968,383.773629 423.984,383.749661 423.984,383.725692 L423.984,223.934569 C423.984,219.516345 420.4,215.945013 415.984,215.945013 C411.568,215.945013 407.984,219.516345 407.984,223.934569 L407.984,342.243916 L408,342.243916 Z" id="Shape"></path>
            <path d="M320,231.932115 C324.416,231.932115 328,228.360783 328,223.942559 C328,219.524334 324.416,215.953003 320,215.953003 L256,215.953003 C251.584,215.953003 248,219.524334 248,223.942559 L248,383.733681 C248,388.151906 251.584,391.723238 256,391.723238 L320,391.723238 C324.416,391.723238 328,388.151906 328,383.733681 C328,379.315457 324.416,375.744125 320,375.744125 L264,375.744125 L264,311.827676 L320,311.827676 C324.416,311.827676 328,308.256345 328,303.83812 C328,299.419896 324.416,295.848564 320,295.848564 L264,295.848564 L264,231.932115 L320,231.932115 Z" id="Shape"></path>
        </g>
    </g>
</svg>