<?xml version="1.0" encoding="UTF-8"?>
<svg width="200px" height="57px" viewBox="0 0 200 57" version="1.1" xmlns="http://www.w3.org/2000/svg" xmlns:xlink="http://www.w3.org/1999/xlink">
    <!-- Generator: Sketch 44.1 (41455) - http://www.bohemiancoding.com/sketch -->
    <title>shopify_monotone_white</title>
    <desc>Created with Sketch.</desc>
    <defs></defs>
    <g id="Page-1" stroke="none" stroke-width="1" fill="none" fill-rule="evenodd">
        <g id="Desktop-Ver-2" transform="translate(-37.000000, -1326.000000)" fill-rule="nonzero" fill="#FFFFFF">
            <g id="Group-3" transform="translate(37.000000, 1204.000000)">
                <g id="Group-2">
                    <g id="shopify_monotone_white" transform="translate(0.000000, 122.000000)">
                        <g id="Group" transform="translate(56.375839, 10.738255)">
                            <path d="M12.6621924,20.98434 C10.9619687,20.0447427 10.0671141,19.2841163 10.0671141,18.2102908 C10.0671141,16.8232662 11.2751678,15.9731544 13.1991051,15.9731544 C15.4362416,15.9731544 17.4049217,16.9127517 17.4049217,16.9127517 L18.9709172,12.1252796 C18.9709172,12.1252796 17.5391499,11.0067114 13.2885906,11.0067114 C7.38255034,11.0067114 3.26621924,14.4071588 3.26621924,19.1498881 C3.26621924,21.8344519 5.1901566,23.8926174 7.74049217,25.3691275 C9.79865772,26.5324385 10.5145414,27.3825503 10.5145414,28.590604 C10.5145414,29.8881432 9.48545861,30.917226 7.56152125,30.917226 C4.69798658,30.917226 2.01342282,29.4407159 2.01342282,29.4407159 L0.357941834,34.2281879 C0.357941834,34.2281879 2.86353468,35.8836689 7.0246085,35.8836689 C13.1096197,35.8836689 17.4496644,32.885906 17.4496644,27.5167785 C17.5391499,24.5637584 15.3020134,22.5055928 12.6621924,20.98434 Z" id="s_2_"></path>
                            <path d="M36.9127517,10.917226 C33.9149888,10.917226 31.5883669,12.3489933 29.753915,14.4966443 L29.6644295,14.4519016 L32.2595078,0.850111857 L25.5033557,0.850111857 L18.9261745,35.4362416 L25.6823266,35.4362416 L27.9194631,23.6241611 C28.8143177,19.1498881 31.0961969,16.4205817 33.2438479,16.4205817 C34.7651007,16.4205817 35.3467562,17.4496644 35.3467562,18.9261745 C35.3467562,19.8657718 35.2572707,20.98434 35.033557,21.9239374 L32.4832215,35.4809843 L39.2393736,35.4809843 L41.8791946,21.5212528 C42.1923937,20.0447427 42.3713647,18.2997763 42.3713647,17.0917226 C42.4161074,13.1991051 40.4026846,10.917226 36.9127517,10.917226 Z" id="h_2_"></path>
                            <path d="M57.7181208,10.917226 C49.5749441,10.917226 44.1610738,18.2550336 44.1610738,26.442953 C44.1610738,31.6778523 47.3825503,35.9284116 53.4675615,35.9284116 C61.4765101,35.9284116 66.8456376,28.7695749 66.8456376,20.4026846 C66.8903803,15.5257271 64.0715884,10.917226 57.7181208,10.917226 Z M54.4071588,30.6935123 C52.0805369,30.6935123 51.1409396,28.7248322 51.1409396,26.2639821 C51.1409396,22.3713647 53.1543624,16.0626398 56.8232662,16.0626398 C59.2393736,16.0626398 60,18.1208054 60,20.1342282 C60,24.3400447 57.9865772,30.6935123 54.4071588,30.6935123 Z" id="o_1_"></path>
                            <path d="M84.2058166,10.917226 C79.6420582,10.917226 77.0469799,14.9440716 77.0469799,14.9440716 L76.9574944,14.9440716 L77.360179,11.3199105 L71.3646532,11.3199105 C71.0514541,13.7807606 70.5145414,17.4944072 69.9776286,20.3131991 L65.2796421,45.1006711 L72.0357942,45.1006711 L73.9149888,35.0782998 L74.049217,35.0782998 C74.049217,35.0782998 75.4362416,35.9731544 78.0313199,35.9731544 C85.9955257,35.9731544 91.1856823,27.8299776 91.1856823,19.5973154 C91.1856823,14.9888143 89.1722595,10.917226 84.2058166,10.917226 Z M77.7628635,30.8277405 C76.0178971,30.8277405 74.9888143,29.8434004 74.9888143,29.8434004 L76.1073826,23.5346756 C76.9127517,19.3288591 79.1051454,16.5100671 81.4317673,16.5100671 C83.4899329,16.5100671 84.1163311,18.4340045 84.1163311,20.2237136 C84.1163311,24.5637584 81.5212528,30.8277405 77.7628635,30.8277405 Z" id="p_1_"></path>
                            <path d="M100.850112,1.16331096 C98.7024609,1.16331096 96.9574944,2.86353468 96.9574944,5.10067114 C96.9574944,7.11409396 98.2102908,8.50111857 100.134228,8.50111857 L100.223714,8.50111857 C102.326622,8.50111857 104.161074,7.06935123 104.205817,4.56375839 C104.250559,2.5950783 102.908277,1.16331096 100.850112,1.16331096 Z" id="dot_2_"></path>
                            <polygon id="i_2_" points="91.3646532 35.4362416 98.1655481 35.4362416 102.774049 11.4541387 95.9284116 11.4541387"></polygon>
                            <path d="M119.955257,11.3646532 L115.257271,11.3646532 L115.480984,10.246085 C115.883669,7.91946309 117.225951,5.86129754 119.50783,5.86129754 C120.715884,5.86129754 121.655481,6.21923937 121.655481,6.21923937 L122.997763,0.939597315 C122.997763,0.939597315 121.834452,0.357941834 119.328859,0.357941834 C116.912752,0.357941834 114.541387,1.02908277 112.706935,2.5950783 C110.380313,4.56375839 109.306488,7.38255034 108.769575,10.246085 L108.590604,11.3646532 L105.458613,11.3646532 L104.474273,16.4653244 L107.606264,16.4653244 L104.026846,35.3914989 L110.782998,35.3914989 L114.362416,16.4653244 L119.01566,16.4653244 L119.955257,11.3646532 Z" id="f_2_"></path>
                            <path d="M136.241611,11.4541387 C136.241611,11.4541387 131.991051,22.1029083 130.111857,27.9194631 L130.022371,27.9194631 C129.888143,26.0402685 128.36689,11.4541387 128.36689,11.4541387 L121.252796,11.4541387 L125.324385,33.4675615 C125.41387,33.9597315 125.369128,34.2729306 125.190157,34.5861298 C124.384787,36.1073826 123.087248,37.5838926 121.521253,38.6577181 C120.268456,39.5973154 118.836689,40.1789709 117.718121,40.5816555 L119.597315,46.3087248 C120.98434,45.9955257 123.803132,44.8769575 126.219239,42.639821 C129.306488,39.7315436 132.170022,35.3020134 135.0783,29.2170022 L143.355705,11.4541387 L136.241611,11.4541387 Z" id="y_2_"></path>
                        </g>
                        <g id="Group">
                            <path d="M32.2147651,55.6152125 L48.9485459,51.9910515 C48.9485459,51.9910515 42.9082774,11.1409396 42.8635347,10.8724832 C42.8187919,10.6040268 42.5950783,10.4250559 42.3713647,10.4250559 C42.147651,10.4250559 37.8970917,10.1118568 37.8970917,10.1118568 C37.8970917,10.1118568 34.9440716,7.15883669 34.5861298,6.84563758 C34.4966443,6.75615213 34.4071588,6.7114094 34.3176734,6.66666667 L32.2147651,55.6152125 Z" id="Shape"></path>
                            <path d="M33.6017897,6.57718121 C33.557047,6.57718121 33.4675615,6.62192394 33.4228188,6.62192394 C33.3780761,6.62192394 32.7516779,6.80089485 31.7673378,7.11409396 C30.7829978,4.25055928 29.0380313,1.61073826 25.950783,1.61073826 C25.8612975,1.61073826 25.7718121,1.61073826 25.6823266,1.61073826 C24.787472,0.492170022 23.7136465,0 22.7740492,0 C15.5704698,0 12.1252796,8.99328859 11.0514541,13.557047 C8.27740492,14.4071588 6.2639821,15.033557 6.04026846,15.1230425 C4.47427293,15.6152125 4.4295302,15.6599553 4.25055928,17.1364653 C4.07158837,18.2102908 0,49.753915 0,49.753915 L31.4541387,55.6599553 L33.6017897,6.57718121 Z M25.4138702,8.76957494 C25.4138702,8.8590604 25.4138702,8.99328859 25.4138702,9.08277405 C23.6689038,9.6196868 21.7449664,10.2013423 19.8657718,10.7829978 C20.9395973,6.66666667 22.9530201,4.65324385 24.6979866,3.89261745 C25.1454139,5.05592841 25.4138702,6.62192394 25.4138702,8.76957494 Z M22.5503356,1.92393736 C22.8635347,1.92393736 23.1767338,2.01342282 23.4899329,2.23713647 C21.2080537,3.31096197 18.7024609,6.04026846 17.6733781,11.4988814 C16.1521253,11.9910515 14.6756152,12.4384787 13.2885906,12.8411633 C14.4966443,8.68008949 17.4049217,1.92393736 22.5503356,1.92393736 Z M23.803132,26.2192394 C23.803132,26.2192394 21.9239374,25.2348993 19.6868009,25.2348993 C16.3310962,25.2348993 16.196868,27.3378076 16.196868,27.8747204 C16.196868,30.738255 23.7136465,31.8568233 23.7136465,38.6129754 C23.7136465,43.9373602 20.3579418,47.3378076 15.7941834,47.3378076 C10.3355705,47.3378076 7.56152125,43.9373602 7.56152125,43.9373602 L9.03803132,39.1051454 C9.03803132,39.1051454 11.901566,41.5659955 14.3176734,41.5659955 C15.8836689,41.5659955 16.5548098,40.3131991 16.5548098,39.4183445 C16.5548098,35.6599553 10.3803132,35.4809843 10.3803132,29.3064877 C10.3803132,24.1163311 14.0939597,19.0604027 21.655481,19.0604027 C24.5637584,19.0604027 25.9955257,19.9105145 25.9955257,19.9105145 L23.803132,26.2192394 Z M26.6666667,3.57941834 C28.2774049,3.75838926 29.3064877,5.59284116 29.9776286,7.65100671 C29.1722595,7.91946309 28.2774049,8.18791946 27.2930649,8.50111857 C27.2930649,8.32214765 27.2930649,8.14317673 27.2930649,7.91946309 C27.2930649,6.17449664 27.0693512,4.74272931 26.6666667,3.57941834 Z" id="Shape"></path>
                        </g>
                    </g>
                </g>
            </g>
        </g>
    </g>
</svg>